<svg height="500" viewBox="0 0 500 500" width="500" xmlns="http://www.w3.org/2000/svg">
    <path d="M 189.2,206 C 190,222.4,198.8,262.4,202.8,284.8,205.94,302.4,173.6,246,141.2,272.4,134.78,277.63,130.98,282.23,133.2,281.6,134.4,290,146.8,288.8,165.6,281.6,191.2,265.2,210.8,250.8,202.8,253.2,197.3,254.85,219.2,240.4,217.2,224.4,217.6,215.2,209.98,206.82,205.2,208.8,203.6,210.8,199.34,221.3,203.6,229.6,206.4,247.2,215.2,267.2,215.2,271.6,215.2,274.92,211.6,258.4,202.8,241.2,198.8,238.4,191.2,240.8,188.4,242,185.02,243.45,186.42,252.05,191.2,259.2,200,264,213.28,267.68,219.6,262.8,229.6,260,248,249.2,255.2,244,268,236.8,268.18,213.46,263.6,195.6,258.8,182.8,237.7,176.82,220,190,211.68,206.56,214.24,239.84,218.4,249.6,220.3,254.05,222,275.2,228.8,283.2,230.05,284.67,223.28,275.2,231.2,277.2,239.44,274.56,245.04,271.44,244.24,270.48,243.4,269.47,246.72,261.28,244.48,255.04,240.64,251.36,234.4,250.24,227.68,251.36,223.04,252.48,219.2,256.32,217.76,260.16,216.38,263.84,218.22,269.92,221.44,272.32,224.4,276.88,232.15,277.25,235.44,276.64,239.22,275.94,244.7,269.54,246.4,263.84,248.64,268.16,252.32,273.92,258.4,273.28,266.08,271.36,275.01,266.74,275.36,261.92,280,257.12,278.24,251.2,272.96,249.12,269.24,247.66,266.12,251.02,266.72,255.84,267.79,264.48,274.72,267.52,277.6,268.16,282,270.8,292.4,266,297.6,259.2,301.59,253.98,301.99,245.58,298.4,242.4,294,239.2,287.2,251.2,304.4,263.6,312.8,266.4,324.4,270,345.6,252,352.8,240.4,363.6,198.8,356.8,195.6,355.2,165.2,329.2,161.2,310.8,156.4,292.81,151.71,264.21,159.11,253.6,171.2,219.6,241.2,265.04,320.56,268.24,385.76,266.72,388.56,265.52,381.28,260.96,374.72,217.58,312.31,157.1,294.95,140,340,133.6,341.6,121.6,341.6,110.4,338.4,94.4,337.6,172,321.6,222.4,295.2,267.6,285.2,316,266.4,319.6,270,321.6,270.4,279.6,272.8,239.6,305.2,234,313.6,292.8,288,304.8,290.4,307.03,290.85,307.23,297.05,305.2,302.8,304.4,306.8,310.42,307.26,321.6,294.8" fill="none" stroke="#000" stroke-width="1.0"/>
</svg>